#!OML:ASF F:\VICON\USERDATA\INSTALL\Justin_Nancy\Justin_Nancy.ASF
:FULLY-SPECIFIED
:DEGREES
100
root -8.29936 17.0567 -11.5415 -2.2308 10.776 -2.2228
lowerback 8.48186 -1.89055 0.215766
upperback 0.491963 -2.30682 4.16458
thorax -4.08255 -1.11064 4.49246
lowerneck -14.3342 -2.30935 -9.6667
upperneck 23.3449 -1.27549 1.93855
head 9.88753 -1.21664 2.13923
rclavicle -2.6985e-014 2.06736e-014
rhumerus -42.5873 -18.1676 -70.1044
rradius 27.1001
rwrist 9.00803
rhand -15.4126 11.1782
rfingers 7.12502
rthumb 10.7668 -18.5258
lclavicle -2.6985e-014 2.06736e-014
lhumerus -28.147 6.16636 86.3847
lradius 37.6586
lwrist 1.81912
lhand -17.1169 27.3082
lfingers 7.12502
lthumb 9.12254 57.0909
rfemur -22.5049 6.93947 14.3212
rtibia 29.7067
rfoot -6.38329 5.37636
rtoes -11.4616
lfemur -4.7683 -1.93218 -25.9804
ltibia 62.9706
lfoot 4.10978 0.0597039
ltoes -10.3042
101
root -8.28724 17.0968 -11.3101 -2.39133 11.5125 -2.72654
lowerback 8.53352 -1.85295 0.414624
upperback 0.43095 -2.22263 4.38995
thorax -4.18043 -1.06815 4.61247
lowerneck -13.9513 -2.37023 -9.51357
upperneck 23.3423 -1.38838 1.73514
head 9.81936 -1.27809 2.02936
rclavicle 4.11484e-014 -4.69132e-014
rhumerus -42.4461 -17.8918 -70.1325
rradius 26.9847
rwrist 8.59138
rhand -15.6341 11.0854
rfingers 7.12502
rthumb 10.5531 -18.6296
lclavicle 4.11484e-014 -4.69132e-014
lhumerus -28.3379 5.83008 86.8215
lradius 37.1626
lwrist 1.07805
lhand -16.7762 27.4491
lfingers 7.12502
lthumb 9.45126 57.2172
rfemur -21.2525 6.50423 15.0924
rtibia 29.4758
rfoot -6.74763 4.83284
rtoes -11.325
lfemur -6.49719 -0.736064 -25.1088
ltibia 64.6589
lfoot 3.08021 1.01382
ltoes -6.80939
102
root -8.27154 17.138 -11.0792 -2.48859 12.1742 -3.25648
lowerback 8.64955 -1.69261 0.730423
upperback 0.294112 -1.95867 4.57249
thorax -4.41299 -0.936663 4.60531
lowerneck -13.5804 -2.60104 -9.27764
upperneck 23.4344 -1.72635 1.41568
head 9.7992 -1.45157 1.83782
rclavicle 3.42904e-015 -7.95139e-016
rhumerus -42.5747 -17.6363 -70.1758
rradius 27.1272
rwrist 8.10527
rhand -16.1558 11.2725
rfingers 7.12502
rthumb 10.0498 -18.4675
lclavicle 3.42904e-015 -7.95139e-016
lhumerus -28.4889 5.27808 87.3147
lradius 36.5177
lwrist 0.415356
lhand -16.5216 27.1564
lfingers 7.12502
lthumb 9.69696 56.9132
rfemur -20.0522 6.33503 15.8224
rtibia 29.2185
rfoot -7.29301 3.94688
rtoes -10.9319
lfemur -8.08137 0.282873 -24.2638
ltibia 65.9031
lfoot 2.1569 0.734835
ltoes -1.85175
103
root -8.25687 17.175 -10.8519 -2.48026 13.0795 -3.64858
lowerback 8.70873 -1.61459 0.909366
upperback 0.15925 -1.82059 4.71394
thorax -4.59879 -0.866487 4.64408
lowerneck -13.4389 -2.7237 -9.10349
upperneck 23.57 -1.90149 1.22147
head 9.82779 -1.54124 1.72046
rclavicle -3.05134e-014 4.13472e-014
rhumerus -42.449 -17.5379 -70.2346
rradius 27.2762
rwrist 7.91353
rhand -15.9284 9.79185
rfingers 7.12502
rthumb 10.2692 -19.9375
lclavicle -3.05134e-014 4.13472e-014
lhumerus -28.5992 4.68814 87.8044
lradius 35.8853
lwrist -0.0201307
lhand -16.1121 27.4585
lfingers 7.12502
lthumb 10.0921 57.1965
rfemur -18.9415 6.28635 16.3559
rtibia 28.9716
rfoot -7.98128 3.16237
rtoes -9.58528
lfemur -9.70218 1.00663 -23.5984
ltibia 66.8395
lfoot 1.2517 0.563567
ltoes 0.88156
104
root -8.24496 17.2077 -10.6223 -2.41731 14.2358 -3.93058
lowerback 8.56209 -1.68256 0.917231
upperback 0.0433426 -1.90333 4.84933
thorax -4.62769 -0.904544 4.79084
lowerneck -13.3288 -2.7129 -8.98455
upperneck 23.7787 -1.89198 1.1112
head 9.87855 -1.5425 1.66528
rclavicle -6.3959e-014 5.32743e-014
rhumerus -42.192 -17.2552 -70.4159
rradius 27.5313
rwrist 8.03302
rhand -15.5969 8.01032
rfingers 7.12502
rthumb 10.589 -21.7029
lclavicle -6.3959e-014 5.32743e-014
lhumerus -28.945 4.33236 88.1841
lradius 35.614
lwrist -0.635942
lhand -15.4857 27.8504
lfingers 7.12502
lthumb 10.6962 57.5581
rfemur -17.8446 6.25223 16.7654
rtibia 28.7854
rfoot -8.72441 2.31848
rtoes -10.3706
lfemur -11.4131 1.67213 -23.0529
ltibia 67.5161
lfoot 0.119147 0.74057
ltoes 1.57228
105
root -8.23555 17.226 -10.399 -2.62147 15.5346 -4.50353
lowerback 8.52303 -1.88304 1.19499
upperback 0.046561 -2.13067 5.09464
thorax -4.58685 -1.02039 4.91898
lowerneck -13.2662 -2.66991 -8.98318
upperneck 23.8416 -1.81732 1.04591
head 9.885 -1.51547 1.65252
rclavicle 1.32192e-014 3.97569e-014
rhumerus -41.7027 -16.9691 -70.6321
rradius 27.618
rwrist 8.28662
rhand -15.9516 7.89475
rfingers 7.12502
rthumb 10.2469 -21.8357
lclavicle 1.32192e-014 3.97569e-014
lhumerus -29.4612 4.24022 88.5044
lradius 35.7154
lwrist -1.44439
lhand -15.0967 26.7969
lfingers 7.12502
lthumb 11.0715 56.4848
rfemur -16.5065 6.10219 17.5463
rtibia 28.6055
rfoot -9.43768 1.1486
rtoes -10.4418
lfemur -13.0372 2.29073 -22.2223
ltibia 67.9998
lfoot -1.51127 0.360667
ltoes 2.4383
106
root -8.21814 17.2358 -10.1799 -2.86418 16.7573 -4.89718
lowerback 8.66257 -2.06435 1.39512
upperback 0.0218494 -2.33452 5.26131
thorax -4.67756 -1.12189 5.01543
lowerneck -13.129 -2.57797 -8.9194
upperneck 23.7961 -1.68494 0.927172
head 9.83395 -1.45944 1.61793
rclavicle 2.40032e-014 -3.26007e-014
rhumerus -41.289 -16.665 -70.8249
rradius 27.6562
rwrist 8.42992
rhand -16.5031 8.65324
rfingers 7.12502
rthumb 9.71483 -21.1027
lclavicle 2.40032e-014 -3.26007e-014
lhumerus -29.9142 4.30456 88.7577
lradius 35.4315
lwrist -2.23339
lhand -15.0737 26.0312
lfingers 7.12502
lthumb 11.0937 55.718
rfemur -15.1536 5.77239 18.1146
rtibia 28.4637
rfoot -10.1624 0.218424
rtoes -9.9165
lfemur -14.6227 2.9522 -21.7604
ltibia 68.2541
lfoot -3.42041 -0.272742
ltoes 3.6895
